<svg width="53" height="53" viewBox="0 0 53 53" fill="none" xmlns="http://www.w3.org/2000/svg">
<rect y="5.53711" width="53" height="47.4627" rx="6.17015" fill="#EFF1F3"/>
<path d="M0 11.7073C0 8.29958 2.76247 5.53711 6.17015 5.53711H46.8298C50.2375 5.53711 53 8.29958 53 11.7073V17.4028H0V11.7073Z" fill="#FF9100"/>
<rect x="15.8213" width="10.2836" height="5.53731" rx="2.05672" transform="rotate(90 15.8213 0)" fill="#797D81"/>
<rect x="42.7168" width="10.2836" height="5.53731" rx="2.05672" transform="rotate(90 42.7168 0)" fill="#797D81"/>
<rect x="7.11914" y="22.9404" width="10.2836" height="10.2836" rx="2.05672" fill="#D2D6DB"/>
<rect x="21.3584" y="22.9404" width="10.2836" height="10.2836" rx="2.05672" fill="#D2D6DB"/>
<rect x="7.11914" y="37.1792" width="10.2836" height="10.2836" rx="2.05672" fill="#D2D6DB"/>
<rect x="21.3584" y="37.1792" width="10.2836" height="10.2836" rx="2.05672" fill="#D2D6DB"/>
<rect x="35.5967" y="37.1792" width="10.2836" height="10.2836" rx="2.05672" fill="#D2D6DB"/>
<rect x="35.5967" y="22.9404" width="10.2836" height="10.2836" rx="5.14179" fill="#BCCFFF"/>
</svg>
