<svg width="200" height="104" viewBox="0 0 200 104" fill="none" xmlns="http://www.w3.org/2000/svg">
<path d="M51 27C51 24.7909 52.7909 23 55 23H78.2495C79.9062 23 81.3915 24.0213 81.9845 25.5683L90.4178 47.5683C91.4219 50.1876 89.4881 53 86.6828 53H55C52.7909 53 51 51.2091 51 49V27Z" fill="#FFAB40"/>
<rect x="51" y="30" width="69" height="37" rx="4" fill="#FFAB40"/>
<rect x="54" y="34" width="64" height="35" rx="4" fill="#FFD180"/>
<rect x="51" y="37" width="69" height="42" rx="4" fill="#FFE1AC"/>
<circle cx="129" cy="26" r="20" fill="#F66444"/>
<rect x="125" y="15" width="8" height="6" rx="2" fill="#F5F7F9"/>
<rect x="119" y="18" width="20" height="3" rx="1" fill="#F5F7F9"/>
<rect x="125.294" y="31.9414" width="8.47059" height="1.05882" rx="0.529412" transform="rotate(-90 125.294 31.9414)" fill="#F5F7F9"/>
<rect x="128.471" y="31.9414" width="8.47059" height="1.05882" rx="0.529412" transform="rotate(-90 128.471 31.9414)" fill="#F5F7F9"/>
<rect x="131.646" y="31.9414" width="8.47059" height="1.05882" rx="0.529412" transform="rotate(-90 131.646 31.9414)" fill="#F5F7F9"/>
<path d="M123.325 33.2128L121.63 20.5H136.37L134.675 33.2128C134.509 34.4548 133.45 35.3824 132.197 35.3824H125.803C124.55 35.3824 123.49 34.4548 123.325 33.2128Z" stroke="#F5F7F9"/>
<rect x="96.6914" y="58.2451" width="33.2642" height="36.5094" fill="#BCCFFF"/>
<rect x="96.6914" y="91.5093" width="28.3962" height="6.49057" rx="3.24528" fill="#BCCFFF"/>
<path d="M90.2002 60.6794C90.2002 61.1275 90.5634 61.4907 91.0115 61.4907H106.427C107.323 61.4907 108.049 60.7642 108.049 59.8681V59.4624C108.049 56.998 106.051 55.0002 103.587 55.0002H93.4455C91.6532 55.0002 90.2002 56.4531 90.2002 58.2454V60.6794Z" fill="#95B0F8"/>
<path d="M100.059 98C101.92 98 103.427 96.4149 103.427 94.4597L103.427 92.3208C103.427 91.8727 103.791 91.5094 104.239 91.5094L132.206 91.5094C132.654 91.5094 133.017 91.8727 133.017 92.3208L133.017 94.4597C133.119 95.6398 132.65 98 129.956 98L100.059 98Z" fill="#95B0F8"/>
<path d="M93.3454 55C95.193 55 96.6907 56.5851 96.6907 58.5403L96.6907 61.4906L129.953 61.4906L129.953 58.5403C130.055 57.3602 129.588 55 126.912 55L93.3454 55Z" fill="#BCCFFF"/>
<path d="M102.776 62.3018H123.871" stroke="#D7E2FF" stroke-width="1.62264" stroke-linecap="round"/>
<path d="M103.182 66.3584H124.276" stroke="#D7E2FF" stroke-width="1.62264" stroke-linecap="round"/>
<path d="M103.182 70.415H124.276" stroke="#D7E2FF" stroke-width="1.62264" stroke-linecap="round"/>
<path d="M103.182 74.4717H112.917" stroke="#D7E2FF" stroke-width="1.62264" stroke-linecap="round"/>
</svg>
