<svg width="14" height="16" viewBox="0 0 14 16" fill="none" xmlns="http://www.w3.org/2000/svg">
<path d="M10.3142 10.334C10.6824 10.334 10.9809 10.0355 10.9809 9.66732C10.9809 9.29913 10.6824 9.00065 10.3142 9.00065V10.334ZM3.60091 9.00065C3.23272 9.00065 2.93424 9.29913 2.93424 9.66732C2.93424 10.0355 3.23272 10.334 3.60091 10.334V9.00065ZM10.3142 13.0007C10.6824 13.0007 10.9809 12.7022 10.9809 12.334C10.9809 11.9658 10.6824 11.6673 10.3142 11.6673V13.0007ZM3.60091 11.6673C3.23272 11.6673 2.93424 11.9658 2.93424 12.334C2.93424 12.7022 3.23272 13.0007 3.60091 13.0007V11.6673ZM2.25825 1.33398V2.00065V1.33398ZM12.9995 6.72065H13.6662C13.6662 6.54964 13.6005 6.38518 13.4826 6.26125L12.9995 6.72065ZM7.87727 1.33398L8.36039 0.874587C8.17247 0.676972 7.88315 0.613725 7.62992 0.714904C7.37669 0.816084 7.21061 1.06129 7.21061 1.33398H7.87727ZM7.87727 6.72065H7.21061C7.21061 7.08884 7.50908 7.38732 7.87727 7.38732V6.72065ZM10.3142 9.00065H3.60091V10.334H10.3142V9.00065ZM10.3142 11.6673H3.60091V13.0007H10.3142V11.6673ZM6.28622 0.667318H2.25825V2.00065H6.28622V0.667318ZM2.25825 0.667318C1.19963 0.667318 0.332845 1.52142 0.332845 2.58398H1.66618C1.66618 2.26655 1.92723 2.00065 2.25825 2.00065V0.667318ZM0.332845 2.58398V14.084H1.66618V2.58398H0.332845ZM0.332845 14.084C0.332845 15.1465 1.19963 16.0007 2.25825 16.0007V14.6673C1.92723 14.6673 1.66618 14.4014 1.66618 14.084H0.332845ZM2.25825 16.0007H11.7408V14.6673H2.25825V16.0007ZM11.7408 16.0007C12.7994 16.0007 13.6662 15.1465 13.6662 14.084H12.3328C12.3328 14.4014 12.0718 14.6673 11.7408 14.6673V16.0007ZM13.6662 14.084V6.72065H12.3328V14.084H13.6662ZM13.4826 6.26125L8.36039 0.874587L7.39416 1.79338L12.5164 7.18005L13.4826 6.26125ZM7.21061 1.33398V6.72065H8.54394V1.33398H7.21061ZM7.87727 7.38732H12.9995V6.05398H7.87727V7.38732Z" fill="#A2A6AB"/>
</svg>
