<svg width="24" height="24" viewBox="0 0 24 24" fill="none" xmlns="http://www.w3.org/2000/svg">
<path d="M16.972 15.5C17.5243 15.5 17.972 15.0523 17.972 14.5C17.972 13.9477 17.5243 13.5 16.972 13.5V15.5ZM6.9021 13.5C6.34981 13.5 5.9021 13.9477 5.9021 14.5C5.9021 15.0523 6.34981 15.5 6.9021 15.5V13.5ZM16.972 19.5C17.5243 19.5 17.972 19.0523 17.972 18.5C17.972 17.9477 17.5243 17.5 16.972 17.5V19.5ZM6.9021 17.5C6.34981 17.5 5.9021 17.9477 5.9021 18.5C5.9021 19.0523 6.34981 19.5 6.9021 19.5V17.5ZM4.88811 2V3V2ZM21 10.08H22C22 9.82349 21.9014 9.57679 21.7247 9.3909L21 10.08ZM13.3166 2L14.0413 1.3109C13.7594 1.01448 13.3255 0.919611 12.9456 1.07138C12.5658 1.22315 12.3166 1.59095 12.3166 2H13.3166ZM13.3166 10.08H12.3166C12.3166 10.6323 12.7644 11.08 13.3166 11.08V10.08ZM16.972 13.5H6.9021V15.5H16.972V13.5ZM16.972 17.5H6.9021V19.5H16.972V17.5ZM10.9301 1H4.88811V3H10.9301V1ZM4.88811 1C3.30017 1 2 2.28116 2 3.875H4C4 3.39884 4.39158 3 4.88811 3V1ZM2 3.875V21.125H4V3.875H2ZM2 21.125C2 22.7188 3.30017 24 4.88811 24V22C4.39158 22 4 21.6012 4 21.125H2ZM4.88811 24H19.1119V22H4.88811V24ZM19.1119 24C20.6998 24 22 22.7188 22 21.125H20C20 21.6012 19.6084 22 19.1119 22V24ZM22 21.125V10.08H20V21.125H22ZM21.7247 9.3909L14.0413 1.3109L12.592 2.6891L20.2753 10.7691L21.7247 9.3909ZM12.3166 2V10.08H14.3166V2H12.3166ZM13.3166 11.08H21V9.08H13.3166V11.08Z" fill="#A2A6AB"/>
</svg>
