<svg width="112" height="102" viewBox="0 0 112 102" fill="none" xmlns="http://www.w3.org/2000/svg">
<path d="M0 5.43995C0 2.43554 2.43555 0 5.43995 0H37.059C39.3121 0 41.3321 1.38896 42.1385 3.4928L53.6078 33.4125C54.9733 36.9748 52.3433 40.7996 48.5282 40.7996H5.43996C2.43556 40.7996 0 38.3641 0 35.3597V5.43995Z" fill="#D2D6DB"/>
<rect y="9.51953" width="93.8392" height="50.3196" rx="5.43995" fill="#D2D6DB"/>
<rect x="4.08008" y="14.96" width="87.0392" height="47.5996" rx="5.43995" fill="#A2A6AB"/>
<rect y="19.04" width="93.8392" height="57.1195" rx="5.43995" fill="#EAECEF"/>
<rect x="62.1406" y="47.9326" width="45.2388" height="49.6524" fill="#D2D6DB"/>
<rect x="62.1406" y="93.1719" width="38.6185" height="8.82709" rx="4.41355" fill="#D2D6DB"/>
<path d="M53.3125 51.2423C53.3125 51.8517 53.8065 52.3457 54.4159 52.3457H75.3802C76.599 52.3457 77.587 51.3577 77.587 50.1389V49.5872C77.587 46.2356 74.87 43.5186 71.5184 43.5186H57.7261C55.2885 43.5186 53.3125 45.4946 53.3125 47.9322V51.2423Z" fill="#A2A6AB"/>
<path d="M66.7211 101.998C69.2509 101.998 71.3016 99.8424 71.3016 97.1833L71.3016 94.2743C71.3016 93.665 71.7956 93.171 72.405 93.171L110.44 93.171C111.05 93.171 111.544 93.665 111.544 94.2743L111.544 97.1833C111.682 98.7882 111.044 101.998 107.379 101.998L66.7211 101.998Z" fill="#A2A6AB"/>
<path d="M57.5897 43.5195C60.1024 43.5195 62.1394 45.6752 62.1394 48.3343L62.1394 52.3466L107.376 52.3466L107.376 48.3343C107.514 46.7294 106.88 43.5195 103.24 43.5195L57.5897 43.5195Z" fill="#D2D6DB"/>
<path d="M70.4155 53.4502H99.1036" stroke="#EAECEF" stroke-width="2.20677" stroke-linecap="round"/>
<path d="M70.9668 58.9668H99.6548" stroke="#EAECEF" stroke-width="2.20677" stroke-linecap="round"/>
<path d="M70.9668 64.4834H99.6548" stroke="#EAECEF" stroke-width="2.20677" stroke-linecap="round"/>
<path d="M70.9668 70H84.2074" stroke="#EAECEF" stroke-width="2.20677" stroke-linecap="round"/>
</svg>
