<svg width="21" height="20" viewBox="0 0 21 20" fill="none" xmlns="http://www.w3.org/2000/svg">
<path d="M18.6686 8.36824H17.9974V8.33366H10.4974V11.667H15.207C14.5199 13.6074 12.6736 15.0003 10.4974 15.0003C7.73615 15.0003 5.4974 12.7616 5.4974 10.0003C5.4974 7.23908 7.73615 5.00033 10.4974 5.00033C11.772 5.00033 12.9316 5.48116 13.8145 6.26658L16.1716 3.90949C14.6832 2.52241 12.6924 1.66699 10.4974 1.66699C5.89531 1.66699 2.16406 5.39824 2.16406 10.0003C2.16406 14.6024 5.89531 18.3337 10.4974 18.3337C15.0995 18.3337 18.8307 14.6024 18.8307 10.0003C18.8307 9.44158 18.7732 8.89616 18.6686 8.36824Z" fill="#FFC107"/>
<path d="M3.125 6.12158L5.86292 8.12949C6.60375 6.29533 8.39792 5.00033 10.4975 5.00033C11.7721 5.00033 12.9317 5.48116 13.8146 6.26658L16.1717 3.90949C14.6833 2.52241 12.6925 1.66699 10.4975 1.66699C7.29667 1.66699 4.52083 3.47408 3.125 6.12158Z" fill="#FF3D00"/>
<path d="M10.4969 18.3336C12.6494 18.3336 14.6052 17.5099 16.084 16.1703L13.5048 13.9878C12.64 14.6454 11.5833 15.0011 10.4969 15.0003C8.32937 15.0003 6.48896 13.6182 5.79562 11.6895L3.07812 13.7832C4.45729 16.482 7.25813 18.3336 10.4969 18.3336Z" fill="#4CAF50"/>
<path d="M18.6713 8.36759H18V8.33301H10.5V11.6663H15.2096C14.8809 12.5898 14.2889 13.3968 13.5067 13.9876L13.5079 13.9868L16.0871 16.1693C15.9046 16.3351 18.8333 14.1663 18.8333 9.99967C18.8333 9.44092 18.7758 8.89551 18.6713 8.36759Z" fill="#1976D2"/>
</svg>
