<svg width="114" height="28" viewBox="0 0 114 28" fill="none" xmlns="http://www.w3.org/2000/svg">
<g clip-path="url(#clip0_3808_2795)">
<path d="M14.8859 6.822C14.0027 6.2465 12.9295 5.95361 11.6817 5.95361C10.8344 5.95361 10.0847 6.0718 9.4274 6.3133C8.77012 6.5548 8.18987 6.86825 7.6815 7.25363C7.17314 7.639 6.71613 8.07063 6.31046 8.55364L6.45424 6.29789H3.79945L0.12793 27.2265H3.0138L4.54402 18.6146C4.7751 19.0976 5.10887 19.5292 5.54021 19.9146C5.97155 20.3 6.49532 20.6134 7.11152 20.8549C7.72772 21.0964 8.4004 21.2146 9.13471 21.2146C10.2901 21.2146 11.3582 20.9988 12.3389 20.5621C13.3197 20.1304 14.1824 19.5241 14.9218 18.7431C15.6613 17.962 16.2569 17.0474 16.6986 15.9992C17.1402 14.9509 17.3815 13.8051 17.4226 12.5719C17.4996 11.3181 17.3148 10.1928 16.8731 9.1908C16.4315 8.18881 15.764 7.3975 14.8808 6.822H14.8859ZM13.674 15.9118C13.1914 16.7905 12.5597 17.4739 11.7844 17.962C11.009 18.4502 10.1258 18.6968 9.13984 18.6968C8.34905 18.6968 7.66096 18.5118 7.07558 18.147C6.49019 17.7822 6.04344 17.2735 5.74561 16.6312C5.44778 15.9837 5.32454 15.2181 5.38616 14.3343C5.42211 13.1987 5.68399 12.1968 6.16668 11.3284C6.64937 10.46 7.28611 9.7663 8.08717 9.24732C8.88309 8.72834 9.77658 8.46629 10.7574 8.46629C11.5636 8.46629 12.2516 8.66154 12.8062 9.04179C13.3659 9.42716 13.7921 9.95128 14.09 10.6193C14.3878 11.2821 14.5162 12.0477 14.4802 12.9161C14.4238 14.0312 14.1516 15.0331 13.674 15.9067V15.9118Z" fill="#292B2C"/>
<path d="M21.2391 -0.0842285C20.6794 -0.0842285 20.2223 0.0853384 19.868 0.419334C19.5137 0.758467 19.334 1.18495 19.334 1.70393C19.334 2.22291 19.5137 2.68536 19.868 3.03477C20.2223 3.37905 20.6794 3.55375 21.2391 3.55375C21.7988 3.55375 22.2301 3.37905 22.5947 3.03477C22.9593 2.6905 23.1441 2.24346 23.1441 1.70393C23.1441 1.1644 22.9593 0.753329 22.5947 0.419334C22.2301 0.0801999 21.7782 -0.0842285 21.2391 -0.0842285Z" fill="#292B2C"/>
<path d="M22.6818 6.30225H19.7959V20.8696H22.6818V6.30225Z" fill="#292B2C"/>
<path d="M30.2204 9.02146C30.8725 8.63608 31.5863 8.44596 32.3565 8.44596C33.3014 8.44596 34.1127 8.67719 34.7956 9.13965C35.4786 9.6021 35.9151 10.2495 36.1102 11.0768H39.1142C38.7855 9.51475 38.0307 8.27126 36.8445 7.34635C35.6583 6.42144 34.1743 5.95898 32.3822 5.95898C30.9957 5.95898 29.7479 6.2827 28.6439 6.925C27.5348 7.57244 26.6772 8.46652 26.061 9.61238C25.4448 10.7582 25.1367 12.1045 25.1367 13.646C25.1367 15.1875 25.4448 16.4207 26.061 17.5769C26.6772 18.733 27.5399 19.6271 28.6439 20.2643C29.7531 20.9014 30.9957 21.22 32.3822 21.22C34.1538 21.22 35.6378 20.7473 36.8291 19.8018C38.0204 18.8563 38.7855 17.6231 39.109 16.1022H36.1051C35.9716 16.6622 35.7302 17.1401 35.381 17.5306C35.037 17.9263 34.5954 18.2295 34.0665 18.4401C33.5376 18.6508 32.9624 18.7587 32.3463 18.7587C31.7711 18.7587 31.2166 18.6405 30.6876 18.4093C30.1587 18.1781 29.7017 17.8492 29.3166 17.4279C28.9315 17.0065 28.6285 16.467 28.4077 15.8093C28.1869 15.1567 28.0739 14.4116 28.0739 13.5844C28.0739 12.4488 28.2639 11.4982 28.6491 10.7377C29.0342 9.9772 29.5528 9.4017 30.2101 9.01633L30.2204 9.02146Z" fill="#292B2C"/>
<path d="M53.3535 6.30271H49.8874L44.2286 12.4225V0.0595703H41.3428V20.87H44.2286V13.4091L50.4985 20.87H54.134L47.1248 12.9621L53.3535 6.30271Z" fill="#292B2C"/>
<path d="M59.7934 2.63356H57.2824L56.9075 6.30237H54.3965V8.72769H56.9075V16.24C56.9075 17.3961 57.0924 18.3108 57.4569 18.9839C57.8215 19.657 58.3402 20.14 59.018 20.4278C59.6958 20.7155 60.4917 20.8594 61.416 20.8594H63.7833V18.4033H62.1092C61.262 18.4033 60.6663 18.2543 60.3171 17.9562C59.9731 17.6582 59.7985 17.093 59.7985 16.2657V8.72255H63.9014V6.29723H59.7985V2.62842L59.7934 2.63356Z" fill="#292B2C"/>
<path d="M75.9356 6.9096C74.8572 6.27244 73.6248 5.95386 72.2384 5.95386C70.8519 5.95386 69.64 6.27244 68.5412 6.9096C67.4423 7.54676 66.5796 8.4357 65.9583 9.58156C65.3318 10.7274 65.0186 12.0737 65.0186 13.6152C65.0186 15.1567 65.3267 16.4413 65.9429 17.5872C66.5591 18.733 67.4166 19.622 68.5103 20.2591C69.6092 20.8963 70.8519 21.2149 72.2332 21.2149C73.6145 21.2149 74.8264 20.8963 75.915 20.2591C77.0036 19.622 77.8663 18.733 78.4979 17.5872C79.1347 16.4413 79.453 15.1053 79.453 13.5844C79.453 12.0634 79.1347 10.7069 78.4979 9.56615C77.8612 8.43056 77.0036 7.54162 75.9253 6.9096H75.9356ZM75.9099 16.4156C75.5042 17.1864 74.9804 17.7619 74.3334 18.1473C73.6864 18.5326 72.9829 18.7228 72.2127 18.7228C71.4424 18.7228 70.7389 18.5326 70.1022 18.1473C69.4655 17.7619 68.952 17.1864 68.5566 16.4156C68.1612 15.6449 67.966 14.6994 67.966 13.5844C67.966 12.4693 68.1612 11.4982 68.5566 10.7377C68.952 9.97722 69.4757 9.40172 70.1279 9.01634C70.78 8.63096 71.4938 8.44084 72.264 8.44084C73.0343 8.44084 73.7378 8.6361 74.3745 9.01634C75.0113 9.40172 75.5248 9.97722 75.9201 10.7377C76.3155 11.4982 76.5107 12.4488 76.5107 13.5844C76.5107 14.7199 76.3104 15.6449 75.9047 16.4156H75.9099Z" fill="#292B2C"/>
<path d="M90.3761 12.9367C89.5699 12.6386 88.6508 12.392 87.634 12.2019C86.9203 12.0683 86.3246 11.9038 85.8419 11.7086C85.3592 11.5185 84.9895 11.2872 84.7276 11.0149C84.4657 10.7477 84.3374 10.4394 84.3374 10.09C84.3374 9.57102 84.5582 9.13939 84.9998 8.8054C85.4414 8.46626 86.0781 8.30183 86.9049 8.30183C87.7316 8.30183 88.4197 8.48682 88.9126 8.85164C89.4056 9.21647 89.6983 9.73031 89.7907 10.3829H92.5944C92.3993 8.95955 91.8139 7.86507 90.8331 7.10459C89.8524 6.34411 88.5532 5.96387 86.9357 5.96387C85.8214 5.96387 84.8457 6.15399 84.019 6.52909C83.1923 6.90419 82.5607 7.42317 82.1293 8.09116C81.698 8.75401 81.4772 9.50422 81.4772 10.3315C81.4772 11.0252 81.621 11.6007 81.9085 12.0631C82.1961 12.5256 82.5863 12.9161 83.0793 13.2347C83.5722 13.5533 84.132 13.8102 84.7687 14.0003C85.4054 14.1956 86.037 14.3549 86.6738 14.4936C87.403 14.6118 88.0294 14.7557 88.5532 14.9252C89.077 15.0948 89.4621 15.326 89.724 15.6035C89.9859 15.881 90.1142 16.292 90.1142 16.8316C90.1142 17.1964 90.0115 17.5407 89.8113 17.8592C89.611 18.1778 89.3029 18.4296 88.887 18.6094C88.471 18.7944 87.9575 18.8818 87.3413 18.8818C86.6481 18.8818 86.0576 18.7687 85.5646 18.5375C85.0717 18.3063 84.6865 17.998 84.4093 17.6126C84.132 17.2272 83.942 16.8059 83.8444 16.3434H80.9277C81.0407 17.3248 81.3642 18.1778 81.8931 18.9023C82.422 19.6268 83.146 20.1921 84.0601 20.6083C84.9741 21.0245 86.0679 21.23 87.3362 21.23C88.4916 21.23 89.498 21.0348 90.3556 20.6545C91.2131 20.2691 91.8755 19.7348 92.348 19.0513C92.8204 18.3679 93.0566 17.5612 93.0566 16.6363C93.0566 15.5983 92.8101 14.7968 92.3223 14.2367C91.8293 13.6766 91.1823 13.2501 90.371 12.9521L90.3761 12.9367Z" fill="#292B2C"/>
<path d="M105.931 14.2213C105.438 13.6612 104.791 13.2347 103.98 12.9367C103.173 12.6386 102.254 12.392 101.238 12.2019C100.524 12.0683 99.9281 11.9038 99.4454 11.7086C98.9628 11.5185 98.593 11.2872 98.3311 11.0149C98.0693 10.7477 97.9409 10.4394 97.9409 10.09C97.9409 9.57102 98.1617 9.13939 98.6033 8.8054C99.0449 8.46626 99.6816 8.30183 100.508 8.30183C101.335 8.30183 102.023 8.48682 102.516 8.85164C103.009 9.21647 103.302 9.73031 103.394 10.3829H106.198C106.003 8.95955 105.417 7.86507 104.437 7.10459C103.456 6.34411 102.157 5.96387 100.539 5.96387C99.4249 5.96387 98.4493 6.15399 97.6225 6.52909C96.7958 6.90419 96.1642 7.42317 95.7328 8.09116C95.3015 8.75401 95.0807 9.50422 95.0807 10.3315C95.0807 11.0252 95.2245 11.6007 95.512 12.0631C95.7996 12.5256 96.1899 12.9161 96.6828 13.2347C97.1758 13.5533 97.7355 13.8102 98.3722 14.0003C99.009 14.1956 99.6406 14.3549 100.277 14.4936C101.006 14.6118 101.633 14.7557 102.157 14.9252C102.68 15.0948 103.066 15.326 103.327 15.6035C103.589 15.881 103.718 16.292 103.718 16.8316C103.718 17.1964 103.615 17.5407 103.415 17.8592C103.215 18.1778 102.906 18.4296 102.49 18.6094C102.075 18.7944 101.561 18.8818 100.945 18.8818C100.252 18.8818 99.6611 18.7687 99.1681 18.5375C98.6752 18.3063 98.2901 17.998 98.0128 17.6126C97.7355 17.2272 97.5455 16.8059 97.4479 16.3434H94.5312C94.6442 17.3248 94.9677 18.1778 95.4966 18.9023C96.0255 19.6268 96.7496 20.1921 97.6636 20.6083C98.5776 21.0245 99.6714 21.23 100.94 21.23C102.095 21.23 103.102 21.0348 103.959 20.6545C104.817 20.2691 105.479 19.7348 105.951 19.0513C106.424 18.3679 106.66 17.5612 106.66 16.6363C106.66 15.5983 106.414 14.7968 105.926 14.2367L105.931 14.2213Z" fill="#292B2C"/>
</g>
<defs>
<clipPath id="clip0_3808_2795">
<rect width="114" height="27.1429" fill="white"/>
</clipPath>
</defs>
</svg>
