<svg width="104" height="104" viewBox="0 0 104 104" fill="none" xmlns="http://www.w3.org/2000/svg">
<path d="M90.9683 4.3969C90.9683 4.3969 90.8634 4.41378 90.816 4.43411C69.1047 9.9437 45.9827 17.6167 28.883 32.7898C21.6182 39.2484 15.8398 47.662 15.2398 57.6498C14.3013 73.2724 26.1522 86.6967 41.7073 87.6312C48.111 88.0159 54.5336 86.1652 59.7659 82.4236C64.7938 78.8204 68.2194 73.4638 71.0102 67.9185C75.3226 59.3241 87.3114 35.8828 87.3114 35.8828C87.7285 35.085 86.9406 34.1802 86.1014 34.5122C82.128 35.3512 73.2179 38.0838 69.8095 40.0808C69.3431 40.3541 68.7818 39.9032 68.9395 39.3912C70.4525 34.3717 73.9078 29.4804 76.6303 25.2636C81.1731 18.2127 86.2905 11.7757 92.0653 5.72593C92.2496 5.54 92.4359 5.31942 92.4518 5.05385C92.49 4.41879 91.6204 4.29702 90.9676 4.40845L90.9683 4.3969Z" fill="url(#paint0_radial_3808_2750)"/>
<defs>
<radialGradient id="paint0_radial_3808_2750" cx="0" cy="0" r="1" gradientUnits="userSpaceOnUse" gradientTransform="translate(24.0553 79.8768) rotate(-68.4287) scale(50.0917 43.008)">
<stop stop-color="#C7D6FF"/>
<stop offset="1" stop-color="#FB7E20"/>
</radialGradient>
</defs>
</svg>
