<svg width="57" height="64" viewBox="0 0 57 64" fill="none" xmlns="http://www.w3.org/2000/svg">
<circle cx="34.4566" cy="13.7234" r="20.2689" transform="rotate(4.65487 34.4566 13.7234)" fill="#FFECD0"/>
<circle cx="34.456" cy="13.7234" r="16.0753" transform="rotate(4.65487 34.456 13.7234)" fill="#FFD180"/>
<circle cx="34.4559" cy="13.7235" r="10.4839" transform="rotate(4.65487 34.4559 13.7235)" fill="#FF9100"/>
<rect x="5.67951" y="16.7569" width="30.9658" height="50.5606" rx="3.87401" transform="rotate(-12.7073 5.67951 16.7569)" fill="#BCCFFF" stroke="url(#paint0_linear_162_2776)" stroke-width="2.58267"/>
<path d="M14.0674 59.1899L46.522 51.8716L47.1264 54.5519C47.7539 57.3348 46.0067 60.0995 43.2238 60.727L20.8468 65.7728C18.064 66.4004 15.2993 64.6531 14.6718 61.8702L14.0674 59.1899Z" fill="#7095F8"/>
<path d="M31.4507 29.7518L28.8956 30.7728L30.6625 25.618C30.718 25.457 30.5459 25.3135 30.3988 25.3965C27.3756 27.0898 24.2749 28.7072 21.3392 30.5432C19.124 31.9295 17.5099 34.0536 17.7378 36.7875C18.0293 40.2735 21.0828 42.869 24.5569 42.5831C26.648 42.4105 28.5508 41.1719 29.5615 39.3299C30.0884 38.3704 30.2214 37.3585 30.4336 36.3046C30.8584 34.1909 31.2786 32.0745 31.7011 29.9595C31.7303 29.815 31.5878 29.6964 31.4502 29.75L31.4507 29.7518Z" fill="white"/>
<defs>
<linearGradient id="paint0_linear_162_2776" x1="24.2814" y1="47.3762" x2="15.9056" y2="13.2689" gradientUnits="userSpaceOnUse">
<stop stop-color="#7095F8"/>
<stop offset="1" stop-color="#A6B8F8"/>
</linearGradient>
</defs>
</svg>
