<svg width="100" height="100" viewBox="0 0 100 100" fill="none" xmlns="http://www.w3.org/2000/svg">
<rect x="16.1611" y="18.3164" width="59.6305" height="65.4481" fill="#D2D6DB"/>
<rect x="16.1611" y="77.9482" width="50.9041" height="11.6352" rx="5.81761" fill="#D2D6DB"/>
<path d="M4.52441 22.6813C4.52441 23.4846 5.17557 24.1357 5.97882 24.1357H33.6125C35.219 24.1357 36.5213 22.8334 36.5213 21.2269V20.4997C36.5213 16.0819 32.9399 12.5005 28.5221 12.5005H10.342C7.12905 12.5005 4.52441 15.1052 4.52441 18.3181V22.6813Z" fill="#A2A6AB"/>
<path d="M22.1988 89.583C25.5333 89.583 28.2365 86.7416 28.2365 83.2365L28.2365 79.4022C28.2365 78.5989 28.8876 77.9478 29.6909 77.9478L79.826 77.9478C80.6293 77.9478 81.2804 78.5989 81.2804 79.4022L81.2804 83.2365C81.4634 85.352 80.6218 89.583 75.7916 89.583L22.1988 89.583Z" fill="#A2A6AB"/>
<path d="M10.163 12.5C13.4751 12.5 16.1601 15.3414 16.1601 18.8465L16.1601 24.1352L75.7879 24.1352L75.7879 18.8465C75.9696 16.731 75.1336 12.5 70.336 12.5L10.163 12.5Z" fill="#D2D6DB"/>
<path d="M27.0684 25.5898H64.8828" stroke="#EAECEF" stroke-width="2.9088" stroke-linecap="round"/>
<path d="M27.7969 32.8613H65.6113" stroke="#EAECEF" stroke-width="2.9088" stroke-linecap="round"/>
<path d="M27.7969 40.1328H65.6113" stroke="#EAECEF" stroke-width="2.9088" stroke-linecap="round"/>
<path d="M27.7969 47.4062H45.2497" stroke="#EAECEF" stroke-width="2.9088" stroke-linecap="round"/>
<path d="M46.7819 68.8751C45.5977 69.3491 44.428 68.1622 44.9191 66.985L48.7877 57.7133C49.1837 56.7642 50.4187 56.5248 51.1406 57.2573L56.5991 62.7958C57.321 63.5283 57.0637 64.7597 56.1089 65.1419L46.7819 68.8751Z" fill="#F5F7F9"/>
<path d="M46.7618 68.8924C45.5747 69.3726 44.3989 68.1795 44.8962 66.9995L46.2137 63.8737L49.9065 67.6206L46.7618 68.8924Z" fill="#4B4F54"/>
<path d="M81.5572 24.4652C82.1237 23.9079 83.0348 23.9153 83.5922 24.4819L89.8428 30.8354C90.4002 31.402 90.3927 32.313 89.8262 32.8704L57.7486 64.4283C57.1732 64.9943 56.2449 64.9765 55.6916 64.3888L52.8977 61.421L49.4803 58.0805C48.9041 57.5173 48.9026 56.5907 49.477 56.0257L81.5572 24.4652Z" fill="#797D81"/>
<rect x="87.8135" y="18.417" width="11.7908" height="5.72933" rx="1.439" transform="rotate(45.4679 87.8135 18.417)" fill="#797D81"/>
<rect x="82.1553" y="23.0312" width="13.0198" height="2.07742" rx="1.03871" transform="rotate(45.4679 82.1553 23.0312)" fill="#A2A6AB"/>
<rect x="83.5898" y="21.5498" width="13.1168" height="2.13585" rx="1.06792" transform="rotate(45.4679 83.5898 21.5498)" fill="#A2A6AB"/>
</svg>
