<svg width="27" height="33" viewBox="0 0 27 33" fill="none" xmlns="http://www.w3.org/2000/svg">
<path d="M12.1885 17.6963L14.7866 16.1963L21.0366 27.0216C21.4508 27.739 21.205 28.6564 20.4875 29.0706C19.7701 29.4849 18.8527 29.239 18.4385 28.5216L12.1885 17.6963Z" fill="#D2D6DB"/>
<rect x="9.68848" y="13.3662" width="3" height="9" transform="rotate(-30 9.68848 13.3662)" fill="#A2A6AB"/>
<path fill-rule="evenodd" clip-rule="evenodd" d="M0.633709 6.21909C0.283721 6.42115 0.163806 6.86868 0.365872 7.21867L0.731634 7.85219C1.41356 9.03333 2.7944 9.55937 4.05016 9.20955L8.53305 16.9742C7.60222 17.8868 7.36737 19.3456 8.0493 20.5268L8.41506 21.1603C8.61713 21.5103 9.06465 21.6302 9.41464 21.4281L19.5534 15.5745C19.9034 15.3724 20.0233 14.9249 19.8212 14.5749L19.4555 13.9414C18.7736 12.7603 17.3929 12.2343 16.1372 12.584L11.6542 4.81925C12.5849 3.90663 12.8197 2.44788 12.1378 1.26682L11.7721 0.633304C11.57 0.283316 11.1225 0.163401 10.7725 0.365467L0.633709 6.21909Z" fill="url(#paint0_linear_2283_13523)"/>
<defs>
<linearGradient id="paint0_linear_2283_13523" x1="5.70309" y1="3.29228" x2="14.484" y2="18.5013" gradientUnits="userSpaceOnUse">
<stop stop-color="#7095F8"/>
<stop offset="1" stop-color="#A9C0FF"/>
</linearGradient>
</defs>
</svg>
