<svg width="32" height="32" viewBox="0 0 32 32" fill="none" xmlns="http://www.w3.org/2000/svg">
<path d="M18.0186 17.9751L15.3795 16.4515L9.03099 27.4474C8.61025 28.1762 8.85994 29.108 9.58869 29.5288C10.3174 29.9495 11.2493 29.6998 11.67 28.9711L18.0186 17.9751Z" fill="#D2D6DB"/>
<rect width="3.04729" height="9.14188" transform="matrix(-0.866025 -0.5 -0.5 0.866025 20.5596 13.5771)" fill="#A2A6AB"/>
<path fill-rule="evenodd" clip-rule="evenodd" d="M29.7561 6.31729C30.1116 6.52254 30.2335 6.97712 30.0282 7.33263L29.6567 7.97613C28.9637 9.17631 27.5604 9.71061 26.2845 9.35451L21.7318 17.24C22.6782 18.1669 22.9172 19.6495 22.2242 20.8497L21.8527 21.4932C21.6474 21.8487 21.1929 21.9705 20.8374 21.7652L10.5388 15.8193C10.1832 15.6141 10.0614 15.1595 10.2667 14.804L10.6382 14.1605C11.3306 12.9613 12.7323 12.4269 14.0074 12.7813L18.5609 4.89439C17.6163 3.96733 17.3783 2.48621 18.0707 1.28695L18.4422 0.643448C18.6475 0.287943 19.102 0.166138 19.4575 0.371389L29.7561 6.31729Z" fill="url(#paint0_linear_2808_1902)"/>
<defs>
<linearGradient id="paint0_linear_2808_1902" x1="24.6069" y1="3.34436" x2="15.688" y2="18.7923" gradientUnits="userSpaceOnUse">
<stop stop-color="#7095F8"/>
<stop offset="1" stop-color="#A9C0FF"/>
</linearGradient>
</defs>
</svg>
