<svg width="36" height="30" viewBox="0 0 36 30" fill="none" xmlns="http://www.w3.org/2000/svg">
<path fill-rule="evenodd" clip-rule="evenodd" d="M22.6518 7.8374C26.3152 7.8374 29.285 10.8072 29.285 14.4705V18.7263C29.285 22.3897 26.3152 25.3595 22.6518 25.3595H12.189L7.36588 29.7806C6.83407 30.2681 5.97647 29.8909 5.97647 29.1694L5.97646 25.2305C2.93952 24.6231 0.651367 21.942 0.651367 18.7263V14.4705C0.651367 10.8072 3.62112 7.8374 7.28449 7.8374H22.6518Z" fill="#FFAB40"/>
<circle cx="8.73248" cy="16.544" r="1.24371" fill="#F6FAFD"/>
<circle cx="15.3653" cy="16.544" r="1.24371" fill="#F6FAFD"/>
<circle cx="21.9986" cy="16.544" r="1.24371" fill="#F6FAFD"/>
<path d="M32.3464 8.52251C32.5369 8.18585 32.9708 8.18585 33.1613 8.52251L33.8984 9.82487C33.9294 9.87964 33.9687 9.92772 34.0145 9.96688L35.1454 10.9327C35.4025 11.1524 35.4025 11.5902 35.1454 11.8099L34.0145 12.7757C33.9687 12.8149 33.9294 12.863 33.8984 12.9177L33.1613 14.2201C32.9708 14.5568 32.5369 14.5568 32.3464 14.2201L31.6093 12.9177C31.5783 12.863 31.539 12.8149 31.4931 12.7757L30.3623 11.8099C30.1051 11.5902 30.1051 11.1524 30.3623 10.9327L31.4931 9.96688C31.539 9.92772 31.5783 9.87964 31.6093 9.82487L32.3464 8.52251Z" fill="#95B0F8"/>
<path d="M28.0477 0.336658C28.3145 -0.11222 28.9219 -0.112219 29.1886 0.336659L30.2205 2.07313C30.2639 2.14616 30.319 2.21027 30.3832 2.26248L31.9663 3.5503C32.3263 3.84317 32.3263 4.42692 31.9663 4.71979L30.3832 6.00762C30.319 6.05982 30.2639 6.12394 30.2205 6.19697L29.1886 7.93344C28.9219 8.38231 28.3145 8.38231 28.0477 7.93344L27.0158 6.19697C26.9724 6.12394 26.9174 6.05982 26.8532 6.00762L25.27 4.71979C24.91 4.42692 24.91 3.84317 25.27 3.5503L26.8532 2.26248C26.9174 2.21027 26.9724 2.14616 27.0158 2.07313L28.0477 0.336658Z" fill="#95B0F8"/>
</svg>
