<svg
      width="337"
      height="171"
      viewBox="0 0 337 171"
      fill="none"
      xmlns="http://www.w3.org/2000/svg"
    >
      <g clip-path="url(#clip0_0_1)">
        <path
          d="M283.836 32.3797L285.096 36.6317C285.241 37.1267 285.624 37.5211 286.116 37.6796L290.34 39.0613C291.581 39.4674 291.819 41.1162 290.741 41.8482L287.077 44.3498C286.649 44.6398 286.394 45.126 286.394 45.6402L286.387 50.0731C286.385 51.3725 284.888 52.1086 283.853 51.3131L280.33 48.6076C279.918 48.293 279.378 48.1991 278.887 48.3569L274.658 49.7156C273.415 50.1151 272.254 48.9212 272.69 47.6932L274.18 43.5179C274.354 43.0299 274.277 42.4901 273.972 42.0727L271.367 38.4818C270.6 37.4253 271.379 35.9571 272.684 35.9937L277.127 36.1176C277.644 36.1306 278.137 35.8922 278.441 35.4753L281.061 31.8974C281.828 30.8483 283.472 31.134 283.844 32.3811L283.836 32.3797Z"
          fill="#BCCFFF"
        />
      </g>
      <g clip-path="url(#clip1_0_1)">
        <path
          d="M316.118 46.2653L320.422 51.1156C320.921 51.6809 321.672 51.9662 322.423 51.8708L328.873 51.0823C330.769 50.8504 332.105 52.8869 331.132 54.5243L327.831 60.1086C327.444 60.7582 327.407 61.5601 327.726 62.2412L330.465 68.116C331.268 69.8383 329.742 71.741 327.877 71.3296L321.535 69.9303C320.794 69.7693 320.02 69.9799 319.468 70.4928L314.71 74.9139C313.312 76.2137 311.033 75.3525 310.85 73.4555L310.234 67.0028C310.162 66.2485 309.726 65.5813 309.063 65.2176L303.387 62.077C301.716 61.1533 301.838 58.726 303.589 57.9649L309.549 55.3752C310.243 55.0715 310.747 54.4506 310.891 53.71L312.143 47.3473C312.508 45.4824 314.863 44.8414 316.129 46.2622L316.118 46.2653Z"
          fill="#BCCFFF"
        />
      </g>
      <g clip-path="url(#clip2_0_1)">
        <path
          d="M20.8701 148.312L20.5685 152.736C20.5323 153.251 20.7532 153.754 21.1594 154.074L24.6366 156.841C25.6586 157.654 25.3064 159.283 24.0412 159.593L19.7353 160.661C19.2329 160.783 18.8244 161.15 18.6451 161.632L17.0937 165.785C16.6386 167.002 14.9792 167.17 14.2858 166.063L11.9272 162.3C11.6503 161.861 11.1768 161.585 10.6621 161.562L6.22498 161.361C4.92047 161.302 4.24811 159.778 5.08552 158.78L7.93659 155.385C8.26995 154.989 8.38611 154.456 8.24557 153.958L7.05552 149.684C6.70502 148.427 7.94698 147.322 9.15794 147.812L13.2784 149.476C13.759 149.669 14.3035 149.617 14.7337 149.332L18.4366 146.892C19.5214 146.176 20.9628 147.017 20.877 148.316L20.8701 148.312Z"
          fill="#BCCFFF"
        />
      </g>
      <path
        d="M84.8985 114.425C86.115 112.525 88.885 112.525 90.1015 114.425L94.8072 121.774C95.0051 122.083 95.2563 122.354 95.5489 122.575L102.769 128.025C104.41 129.265 104.41 131.735 102.769 132.975L95.5489 138.425C95.2563 138.646 95.0051 138.917 94.8072 139.226L90.1015 146.575C88.885 148.475 86.115 148.475 84.8985 146.575L80.1928 139.226C79.9949 138.917 79.7437 138.646 79.4511 138.425L72.2314 132.975C70.5895 131.735 70.5895 129.265 72.2314 128.025L79.4511 122.575C79.7437 122.354 79.9949 122.083 80.1928 121.774L84.8985 114.425Z"
        fill="#FF9100"
      />
      <path
        d="M102.16 152.733C102.787 151.756 104.213 151.756 104.84 152.733L107.264 156.512C107.366 156.671 107.496 156.811 107.646 156.924L111.366 159.727C112.211 160.365 112.211 161.635 111.366 162.273L107.646 165.076C107.496 165.189 107.366 165.329 107.264 165.488L104.84 169.267C104.213 170.244 102.787 170.244 102.16 169.267L99.7357 165.488C99.6337 165.329 99.5044 165.189 99.3536 165.076L95.6344 162.273C94.7885 161.635 94.7885 160.365 95.6344 159.727L99.3536 156.924C99.5044 156.811 99.6337 156.671 99.7357 156.512L102.16 152.733Z"
        fill="#FF9100"
      />
      <path
        d="M253.491 4.11472C253.491 4.11472 253.299 4.14565 253.212 4.18291C213.422 14.2802 171.047 28.3423 139.709 56.1497C126.395 67.9862 115.805 83.4056 114.706 101.71C112.986 130.341 134.704 154.943 163.212 156.656C174.948 157.361 186.718 153.969 196.307 147.112C205.522 140.509 211.8 130.692 216.915 120.529C224.818 104.778 246.789 61.818 246.789 61.818C247.554 60.3561 246.11 58.6978 244.572 59.3062C237.29 60.8438 220.961 65.8518 214.714 69.5117C213.859 70.0125 212.831 69.1862 213.12 68.2479C215.893 59.0487 222.225 50.0846 227.214 42.3565C235.54 29.4346 244.918 17.6377 255.502 6.5504C255.839 6.20965 256.181 5.80541 256.21 5.3187C256.28 4.15484 254.686 3.93167 253.49 4.13589L253.491 4.11472Z"
        fill="#7095F8"
      />
      <circle
        cx="38"
        cy="38"
        r="38"
        transform="matrix(1 0 0.000990467 1 128.825 69.0938)"
        fill="url(#paint0_linear_0_1)"
      />
      <defs>
        <linearGradient
          id="paint0_linear_0_1"
          x1="38"
          y1="0"
          x2="38"
          y2="76"
          gradientUnits="userSpaceOnUse"
        >
          <stop stop-color="#A9BCFF" />
          <stop offset="1" stop-color="#E8EFFF" />
        </linearGradient>
        <clipPath id="clip0_0_1">
          <rect
            width="20.625"
            height="19.7083"
            fill="white"
            transform="translate(272.435 29.5117) rotate(9.85698)"
          />
        </clipPath>
        <clipPath id="clip1_0_1">
          <rect
            width="30.1594"
            height="28.819"
            fill="white"
            transform="translate(299.24 49.5356) rotate(-15.2279)"
          />
        </clipPath>
        <clipPath id="clip2_0_1">
          <rect
            width="20.625"
            height="19.7083"
            fill="white"
            transform="translate(11.1836 141.649) rotate(30.2572)"
          />
        </clipPath>
      </defs>
    </svg>