<svg width="33" height="27" viewBox="0 0 33 27" fill="none" xmlns="http://www.w3.org/2000/svg">
<rect x="4.49512" y="2.22754" width="20.2744" height="22.2524" fill="#BCCFFF"/>
<rect x="4.49512" y="22.502" width="17.3074" height="3.95597" rx="1.97799" fill="#BCCFFF"/>
<path d="M0.538086 3.71156C0.538086 3.98466 0.75948 4.20605 1.03258 4.20605H10.428C10.9742 4.20605 11.417 3.76327 11.417 3.21706V2.96981C11.417 1.46774 10.1994 0.25008 8.69728 0.25008H2.51607C1.42366 0.25008 0.538086 1.13565 0.538086 2.22807V3.71156Z" fill="#95B0F8"/>
<path d="M6.54793 26.459C7.68166 26.459 8.60073 25.4929 8.60073 24.3012L8.60073 22.9975C8.60073 22.7244 8.82213 22.503 9.09523 22.503L26.1412 22.503C26.4143 22.503 26.6357 22.7244 26.6357 22.9975L26.6357 24.3012C26.6979 25.0204 26.4117 26.459 24.7695 26.459L6.54793 26.459Z" fill="#95B0F8"/>
<path d="M2.45598 0.25C3.58208 0.25 4.49497 1.21608 4.49497 2.4078L4.49497 4.20597L24.7684 4.20597L24.7684 2.4078C24.8302 1.68854 24.546 0.250001 22.9148 0.250001L2.45598 0.25Z" fill="#BCCFFF"/>
<path d="M8.20312 4.7002H21.06" stroke="#D7E2FF" stroke-width="0.988994" stroke-linecap="round"/>
<path d="M8.45117 7.17285H21.3081" stroke="#D7E2FF" stroke-width="0.988994" stroke-linecap="round"/>
<path d="M8.45117 9.64551H21.3081" stroke="#D7E2FF" stroke-width="0.988994" stroke-linecap="round"/>
<path d="M8.45117 12.1182H14.3851" stroke="#D7E2FF" stroke-width="0.988994" stroke-linecap="round"/>
<path d="M14.9054 19.4173C14.5028 19.5785 14.1051 19.175 14.2721 18.7747L15.5874 15.6223C15.722 15.2996 16.1419 15.2182 16.3874 15.4673L18.2432 17.3504C18.4887 17.5994 18.4012 18.0181 18.0766 18.148L14.9054 19.4173Z" fill="#FFECD0"/>
<path d="M14.8994 19.4235C14.4958 19.5867 14.096 19.1811 14.2651 18.7799L14.7131 17.7171L15.9686 18.991L14.8994 19.4235Z" fill="#4B4F54"/>
<path d="M26.7294 4.31773C26.922 4.12823 27.2317 4.13076 27.4212 4.32338L29.5465 6.48359C29.736 6.67621 29.7334 6.98598 29.5408 7.17549L18.6344 17.9052C18.4388 18.0976 18.1232 18.0916 17.9351 17.8918L16.9851 16.8827L15.8232 15.7469C15.6273 15.5554 15.6268 15.2404 15.8221 15.0483L26.7294 4.31773Z" fill="#7095F8"/>
<rect x="29.0225" y="2.09766" width="4.00887" height="2.18104" rx="0.489259" transform="rotate(45.4679 29.0225 2.09766)" fill="#FF9100"/>
<rect x="26.9326" y="3.83105" width="4.42675" height="0.706322" rx="0.353161" transform="rotate(45.4679 26.9326 3.83105)" fill="#D2D6DB"/>
<rect x="27.4199" y="3.32617" width="4.45971" height="0.726188" rx="0.363094" transform="rotate(45.4679 27.4199 3.32617)" fill="#D2D6DB"/>
</svg>
