<svg width="149" height="137" viewBox="0 0 149 137" fill="none" xmlns="http://www.w3.org/2000/svg">
<path fill-rule="evenodd" clip-rule="evenodd" d="M42.4937 10.7424C40.4493 10.7424 38.792 12.3997 38.792 14.4441V26.4746C38.792 28.5189 40.4493 30.1762 42.4937 30.1762H62.4815L68.737 35.3892C69.3398 35.8915 70.2549 35.4629 70.2549 34.6782L70.2549 30.1762H71.1816C73.226 30.1762 74.8833 28.5189 74.8833 26.4746V14.4441C74.8833 12.3997 73.226 10.7424 71.1816 10.7424H42.4937Z" fill="#95B0F8"/>
<path d="M44.3438 16.2952L69.3301 16.2952" stroke="#F5F7F9" stroke-width="1.85084" stroke-linecap="round"/>
<path d="M44.3438 19.9966L69.3301 19.9966" stroke="#F5F7F9" stroke-width="1.85084" stroke-linecap="round"/>
<path d="M44.3438 23.698L55.4488 23.698" stroke="#F5F7F9" stroke-width="1.85084" stroke-linecap="round"/>
<path d="M82.4678 11.3008C82.7139 10.8607 83.2745 10.8607 83.5207 11.3008L84.4729 13.0034C84.513 13.075 84.5638 13.1379 84.623 13.1891L86.084 14.4518C86.4162 14.739 86.4162 15.3113 86.084 15.5985L84.623 16.8612C84.5638 16.9124 84.513 16.9753 84.4729 17.0469L83.5207 18.7495C83.2745 19.1896 82.7139 19.1896 82.4678 18.7495L81.5155 17.0469C81.4755 16.9753 81.4247 16.9124 81.3654 16.8612L79.9045 15.5985C79.5722 15.3113 79.5722 14.739 79.9045 14.4518L81.3654 13.1891C81.4247 13.1379 81.4755 13.075 81.5155 13.0034L82.4678 11.3008Z" fill="#FFAB40"/>
<path d="M31.2298 23.7024C31.4584 23.2623 31.9789 23.2623 32.2074 23.7024L33.0917 25.405C33.1289 25.4766 33.1761 25.5395 33.2311 25.5907L34.5877 26.8534C34.8962 27.1406 34.8962 27.7129 34.5877 28.0001L33.2311 29.2628C33.1761 29.314 33.1289 29.3769 33.0917 29.4485L32.2074 31.1511C31.9789 31.5912 31.4584 31.5912 31.2298 31.1511L30.3455 29.4485C30.3084 29.3769 30.2612 29.314 30.2062 29.2628L28.8495 28.0001C28.541 27.7129 28.541 27.1406 28.8495 26.8534L30.2062 25.5907C30.2612 25.5395 30.3084 25.4766 30.3455 25.405L31.2298 23.7024Z" fill="#FFAB40"/>
<path d="M76.9964 0.446599C77.348 -0.148867 78.1488 -0.148866 78.5005 0.446599L79.8608 2.75014C79.9181 2.84702 79.9907 2.93207 80.0753 3.00132L82.1624 4.70971C82.637 5.09822 82.637 5.8726 82.1624 6.26111L80.0753 7.9695C79.9907 8.03875 79.9181 8.1238 79.8608 8.22068L78.5005 10.5242C78.1488 11.1197 77.348 11.1197 76.9964 10.5242L75.636 8.22068C75.5788 8.1238 75.5062 8.03875 75.4216 7.9695L73.3345 6.26111C72.8599 5.8726 72.8599 5.09822 73.3345 4.70971L75.4216 3.00132C75.5062 2.93207 75.5788 2.84702 75.636 2.75014L76.9964 0.446599Z" fill="#FFAB40"/>
<path fill-rule="evenodd" clip-rule="evenodd" d="M7.40321 35.7737C3.31445 35.7737 -0.000141144 39.0883 -0.000141144 43.177V52.7471C-0.000141144 56.8359 3.31445 60.1505 7.40321 60.1505H42.8651L53.6029 64.9847C54.3371 65.3152 55.114 64.6153 54.8615 63.8507L52.4134 56.4363C53.0388 55.3502 53.3966 54.0904 53.3966 52.7471V43.177C53.3966 39.0883 50.082 35.7737 45.9933 35.7737H7.40321Z" fill="url(#paint0_linear_2259_560)"/>
<circle cx="1.7412" cy="1.7412" r="1.7412" transform="matrix(-1 0 0 1 37.1436 46.2214)" fill="#F5F7F9"/>
<circle cx="1.7412" cy="1.7412" r="1.7412" transform="matrix(-1 0 0 1 27.8564 46.2214)" fill="#F5F7F9"/>
<circle cx="1.7412" cy="1.7412" r="1.7412" transform="matrix(-1 0 0 1 18.5713 46.2214)" fill="#F5F7F9"/>
<path d="M135.389 35.5979C135.389 35.5979 135.271 35.6168 135.218 35.6396C110.911 41.808 85.0239 50.3984 65.8796 67.3859C57.7461 74.6168 51.2767 84.0364 50.605 95.2185C49.5542 112.709 62.8222 127.739 80.2373 128.785C87.4067 129.215 94.5972 127.144 100.455 122.955C106.084 118.921 109.92 112.923 113.044 106.715C117.872 97.0929 131.294 70.8487 131.294 70.8487C131.761 69.9556 130.879 68.9425 129.94 69.3142C125.491 70.2535 115.516 73.3129 111.7 75.5487C111.178 75.8546 110.549 75.3498 110.726 74.7766C112.42 69.1569 116.288 63.6807 119.336 58.9597C124.422 51.0657 130.151 43.8591 136.617 37.0859C136.823 36.8777 137.032 36.6308 137.05 36.3334C137.092 35.6224 136.119 35.4861 135.388 35.6109L135.389 35.5979Z" fill="#FB7E20"/>
<circle cx="23.214" cy="23.214" r="23.214" transform="matrix(1 0 0.000990467 1 59.2305 75.2944)" fill="url(#paint1_linear_2259_560)"/>
<defs>
<linearGradient id="paint0_linear_2259_560" x1="26.773" y1="35.7737" x2="26.773" y2="67.0122" gradientUnits="userSpaceOnUse">
<stop stop-color="#FF9100"/>
<stop offset="1" stop-color="#F2C180"/>
</linearGradient>
<linearGradient id="paint1_linear_2259_560" x1="23.214" y1="0" x2="23.214" y2="46.4281" gradientUnits="userSpaceOnUse">
<stop stop-color="#FFAB40"/>
<stop offset="1" stop-color="#FFDDB2"/>
</linearGradient>
</defs>
</svg>
