<svg width="431" height="222" viewBox="0 0 431 222" fill="none" xmlns="http://www.w3.org/2000/svg">
<path d="M502 221.043C502 274.615 398.354 318.043 270.5 318.043C142.646 318.043 3 307.615 3 254.043C3 200.471 142.646 124.043 270.5 124.043C398.354 124.043 514.5 135.043 502 221.043Z" fill="#EBEBEB"/>
<ellipse cx="274.5" cy="183.043" rx="21.5" ry="9" fill="#E3E3E3"/>
<ellipse cx="94.6341" cy="169.52" rx="19.1766" ry="8.02741" transform="rotate(-26.1641 94.6341 169.52)" fill="#E3E3E3"/>
<ellipse cx="275" cy="179.043" rx="13" ry="5" fill="#D2D6DB"/>
<ellipse cx="92.3416" cy="165.851" rx="10.2572" ry="4.45967" transform="rotate(-26.1641 92.3416 165.851)" fill="#D2D6DB"/>
<ellipse cx="228.999" cy="153.543" rx="39" ry="12.5" transform="rotate(-7.26071 228.999 153.543)" fill="#E3E3E3"/>
<ellipse cx="228.368" cy="148.583" rx="24" ry="7.5" transform="rotate(-7.26071 228.368 148.583)" fill="#D2D6DB"/>
<path d="M200.295 19.3332C172.163 10.6637 149.374 31.0293 140.592 43.4159C140.02 44.2214 139.863 45.2411 140.119 46.1956L157.119 109.454C157.917 112.423 161.989 112.957 163.748 110.438C181.561 84.9314 202.88 82.0308 211.749 87.1802C211.908 87.2727 212.074 87.3548 212.246 87.4199C236.099 96.4201 251.808 86.231 262.339 72.5484C262.995 71.6957 263.164 70.5712 262.841 69.5436L250.934 17.6425C250.1 14.9831 246.462 14.2648 244.248 15.9506C236.889 21.5563 223.074 26.3532 200.295 19.3332Z" fill="url(#paint0_linear_0_1)"/>
<path d="M129.873 28.1626L174 174.043" stroke="url(#paint1_linear_0_1)" stroke-width="9.36585" stroke-linecap="round"/>
<circle cx="128.138" cy="26.7964" r="10.9268" transform="rotate(-6.76799 128.138 26.7964)" fill="#D2D2D2"/>
<rect x="124.551" y="35.582" width="13.6111" height="7.85075" rx="3.12195" transform="rotate(-16.4329 124.551 35.582)" fill="#B5B5B5"/>
<circle cx="265.5" cy="83.543" r="22.5" fill="#FF9100"/>
<path d="M257 82.343L263.75 90.043L275 79.043" stroke="#F5F7F9" stroke-width="4" stroke-linecap="round" stroke-linejoin="round"/>
<g clip-path="url(#clip0_0_1)">
<path d="M310.114 25.659L311.374 29.911C311.52 30.406 311.902 30.8004 312.394 30.9589L316.618 32.3406C317.859 32.7467 318.097 34.3955 317.019 35.1275L313.355 37.6291C312.927 37.9191 312.672 38.4053 312.672 38.9195L312.666 43.3524C312.663 44.6518 311.167 45.3879 310.131 44.5924L306.608 41.8869C306.196 41.5723 305.656 41.4784 305.165 41.6362L300.937 42.9949C299.693 43.3944 298.532 42.2005 298.969 40.9725L300.458 36.7972C300.632 36.3092 300.555 35.7694 300.25 35.352L297.645 31.7611C296.878 30.7046 297.657 29.2364 298.963 29.273L303.405 29.3969C303.923 29.4099 304.415 29.1715 304.719 28.7546L307.339 25.1767C308.106 24.1276 309.75 24.4133 310.122 25.6604L310.114 25.659Z" fill="#BCCFFF"/>
</g>
<g clip-path="url(#clip1_0_1)">
<path d="M342.396 39.5446L346.7 44.3948C347.2 44.9602 347.951 45.2455 348.701 45.1501L355.151 44.3616C357.047 44.1297 358.384 46.1662 357.41 47.8036L354.109 53.3879C353.722 54.0375 353.685 54.8394 354.004 55.5205L356.744 61.3953C357.546 63.1176 356.02 65.0203 354.156 64.6089L347.813 63.2096C347.072 63.0486 346.298 63.2592 345.747 63.7721L340.989 68.1932C339.59 69.4929 337.312 68.6318 337.129 66.7348L336.512 60.2821C336.44 59.5278 336.004 58.8606 335.341 58.4969L329.665 55.3563C327.994 54.4326 328.116 52.0053 329.868 51.2442L335.828 48.6545C336.521 48.3508 337.025 47.7299 337.169 46.9893L338.421 40.6266C338.787 38.7617 341.141 38.1207 342.407 39.5415L342.396 39.5446Z" fill="#BCCFFF"/>
</g>
<g clip-path="url(#clip2_0_1)">
<path d="M20.8701 165.312L20.5685 169.736C20.5323 170.251 20.7532 170.754 21.1594 171.074L24.6366 173.841C25.6586 174.654 25.3064 176.283 24.0412 176.593L19.7353 177.661C19.2329 177.783 18.8244 178.15 18.6451 178.632L17.0937 182.785C16.6386 184.002 14.9792 184.17 14.2858 183.063L11.9272 179.3C11.6503 178.861 11.1768 178.585 10.6621 178.562L6.22498 178.361C4.92047 178.302 4.24811 176.778 5.08552 175.78L7.93659 172.385C8.26995 171.989 8.38611 171.456 8.24557 170.958L7.05552 166.684C6.70502 165.427 7.94698 164.322 9.15794 164.812L13.2784 166.476C13.759 166.669 14.3035 166.617 14.7337 166.332L18.4366 163.892C19.5214 163.176 20.9628 164.017 20.877 165.316L20.8701 165.312Z" fill="#BCCFFF"/>
</g>
<defs>
<linearGradient id="paint0_linear_0_1" x1="243.032" y1="59.316" x2="150.296" y2="-2.70163" gradientUnits="userSpaceOnUse">
<stop stop-color="#A4B2FF"/>
<stop offset="1" stop-color="#6E85FF"/>
</linearGradient>
<linearGradient id="paint1_linear_0_1" x1="143.094" y1="26.5936" x2="160.779" y2="175.612" gradientUnits="userSpaceOnUse">
<stop stop-color="#DDDDDD"/>
<stop offset="1" stop-color="#B9B9B9"/>
</linearGradient>
<clipPath id="clip0_0_1">
<rect width="20.625" height="19.7083" fill="white" transform="translate(298.713 22.791) rotate(9.85698)"/>
</clipPath>
<clipPath id="clip1_0_1">
<rect width="30.1594" height="28.819" fill="white" transform="translate(325.519 42.8149) rotate(-15.2279)"/>
</clipPath>
<clipPath id="clip2_0_1">
<rect width="20.625" height="19.7083" fill="white" transform="translate(11.1836 158.649) rotate(30.2572)"/>
</clipPath>
</defs>
</svg>
