<svg width="174" height="103" viewBox="0 0 174 103" fill="none" xmlns="http://www.w3.org/2000/svg">
<rect x="77.8857" y="39.9429" width="63.8909" height="61.457" rx="8.96" stroke="#D2D6DB" stroke-width="1.68" stroke-linecap="round" stroke-dasharray="2.8 4.48"/>
<rect x="42.5938" y="14.9951" width="63.8909" height="61.457" rx="8.96" fill="#F5F7F9" stroke="#D2D6DB" stroke-width="1.68" stroke-linecap="round" stroke-dasharray="2.8 4.48"/>
<path d="M140.504 68.0117C141.247 63.3878 147.377 55.8168 151.334 59.6095C156.281 64.3504 155.328 75.5951 148.727 67.0609C142.125 58.5266 152.855 47.0992 162.829 45.4367C170.131 44.2197 177.726 46.1514 179.867 52.4343" stroke="#FFAB40" stroke-width="3.36" stroke-linecap="round"/>
<path d="M25.772 23.0311C21.9566 22.9692 12.9182 17.6481 15.5176 14.0163C18.767 9.47645 30.1675 10.1958 24.0508 16.5103C17.9342 22.8247 4.81877 23.3178 3.04351 15.2717C1.82673 9.75686 4.61391 4.60643 9.43263 2.1508" stroke="#FFAB40" stroke-width="3.36" stroke-linecap="round"/>
<path d="M73.8514 55.7637C72.7363 55.7637 72.1281 55.0003 72.1281 54.0333C72.1281 53.0917 72.7363 52.3283 73.8514 52.3283C74.9664 52.3283 75.5493 53.0917 75.5493 54.0333C75.5493 55.0003 74.9664 55.7637 73.8514 55.7637ZM68.1494 39.4775C69.1124 36.8819 71.3932 35.0752 74.2315 35.0752C77.4753 35.0752 80.4656 37.8235 80.3136 41.1316C80.2122 42.9638 79.2745 44.7451 76.791 46.6282C75.5493 47.5443 75.3212 48.0278 75.3465 49.86L72.2802 49.9109C72.2548 47.2135 73.0404 45.5848 74.9664 44.1344C76.791 42.7857 77.1965 42.0223 77.2472 40.9789C77.3232 39.2231 75.9547 38.1288 74.2315 38.1288C72.5843 38.1288 71.6213 38.9177 71.0131 40.5463L68.1494 39.4775Z" fill="#D2D6DB"/>
</svg>
