<svg width="24" height="24" viewBox="0 0 24 24" fill="none" xmlns="http://www.w3.org/2000/svg">
<path d="M8.87891 6.79139C8.87891 6.16447 9.38712 5.65625 10.014 5.65625H13.987C14.6139 5.65625 15.1221 6.16447 15.1221 6.79139V22.1157H8.87891V6.79139Z" fill="#95B0F8"/>
<path d="M1.5 11.8988C1.5 11.2719 2.00822 10.7637 2.63514 10.7637H6.60811C7.23503 10.7637 7.74324 11.2719 7.74324 11.8988V22.115H1.5V11.8988Z" fill="#7095F8"/>
<path d="M16.2568 14.1693C16.2568 13.5424 16.7651 13.0342 17.392 13.0342H21.3649C21.9919 13.0342 22.5001 13.5424 22.5001 14.1693V22.1153H16.2568V14.1693Z" fill="#95B0F8"/>
<circle cx="16.2266" cy="5.625" r="3.375" fill="#FF9100"/>
<path d="M14.877 5.45547L15.8895 6.63672L17.577 4.94922" stroke="#F5F7F9" stroke-width="0.675" stroke-linecap="round" stroke-linejoin="round"/>
</svg>
