<svg width="31" height="31" viewBox="0 0 31 31" fill="none" xmlns="http://www.w3.org/2000/svg">
<rect x="5.8125" y="3.875" width="21.3125" height="27.125" rx="2.90625" fill="#FF9100"/>
<rect x="5.8125" y="3.875" width="20.3438" height="26.1562" rx="2.90625" fill="#F5F7F9"/>
<rect x="4.84375" y="2.90625" width="19.8996" height="25.3891" rx="2.05858" fill="#FFD180"/>
<path d="M4.84375 4.96483C4.84375 3.8279 5.76541 2.90625 6.90233 2.90625H8.27471V28.2954H6.90233C5.76541 28.2954 4.84375 27.3737 4.84375 26.2368V4.96483Z" fill="#FFAB40"/>
<rect x="10.334" y="7.02344" width="11.6653" height="4.11716" rx="0.686193" fill="#FFE1AC"/>
<path d="M29.1184 11.8334L25.4797 9.51696L21.8409 11.8334C21.6 11.9857 21.2832 11.8173 21.2832 11.5341V1.67805C21.2832 1.13836 21.7272 0.700195 22.2741 0.700195H28.6852C29.2321 0.700195 29.6761 1.13836 29.6761 1.67805V11.5315C29.6761 11.8147 29.3594 11.9857 29.1184 11.8307V11.8334Z" fill="#7095F8"/>
</svg>
