<svg width="16" height="16" viewBox="0 0 16 16" fill="none" xmlns="http://www.w3.org/2000/svg">
<g clip-path="url(#clip0_222_465)">
<path d="M9.19402 1.63543L10.6259 4.5253C10.7918 4.86188 11.1149 5.0969 11.4874 5.14912L14.6859 5.61336C15.6259 5.74973 16.0014 6.90162 15.3203 7.56026L13.0066 9.80891C12.7359 10.07 12.6137 10.4501 12.6777 10.8186L13.2249 13.9957C13.3849 14.9271 12.4041 15.6409 11.5631 15.1999L8.70217 13.6998C8.36748 13.5257 7.96876 13.5257 7.63698 13.6998L4.77609 15.1999C3.935 15.6409 2.95421 14.93 3.11427 13.9957L3.66142 10.8186C3.72545 10.4472 3.60322 10.07 3.33255 9.80891L1.01882 7.56026C0.337791 6.89872 0.713228 5.74973 1.65327 5.61336L4.85176 5.14912C5.22429 5.09399 5.54734 4.86188 5.71323 4.5253L7.14512 1.63543C7.56422 0.788192 8.77784 0.788192 9.19984 1.63543H9.19402Z" fill="#FFC95E"/>
<path d="M8.32718 5.0127L6.4209 9.18213L8.03615 9.19373L7.63161 12.1649L9.65431 8.20143H8.03615L8.32718 5.0127Z" fill="url(#paint0_linear_222_465)"/>
</g>
<defs>
<linearGradient id="paint0_linear_222_465" x1="6.01345" y1="10.5516" x2="9.93623" y2="6.61394" gradientUnits="userSpaceOnUse">
<stop offset="0.12" stop-color="#FFB95E"/>
<stop offset="0.78" stop-color="#FF832A"/>
</linearGradient>
<clipPath id="clip0_222_465">
<rect width="15" height="14.3333" fill="white" transform="translate(0.666992 1)"/>
</clipPath>
</defs>
</svg>
