<svg width="20" height="20" viewBox="0 0 20 20" fill="none" xmlns="http://www.w3.org/2000/svg">
<circle cx="10" cy="10" r="9" stroke="#D2D6DB" stroke-width="2"/>
<path d="M9.81122 15C9.26147 15 8.9616 14.631 8.9616 14.1636C8.9616 13.7085 9.26147 13.3395 9.81122 13.3395C10.361 13.3395 10.6483 13.7085 10.6483 14.1636C10.6483 14.631 10.361 15 9.81122 15ZM7 7.12792C7.47478 5.87331 8.59927 5 9.99863 5C11.5979 5 13.0722 6.32841 12.9973 7.92743C12.9473 8.81304 12.485 9.67405 11.2606 10.5843C10.6483 11.0271 10.5359 11.2608 10.5484 12.1464L9.03657 12.171C9.02407 10.8672 9.4114 10.08 10.361 9.37884C11.2606 8.72694 11.4605 8.35793 11.4854 7.85363C11.5229 7.00492 10.8482 6.47601 9.99863 6.47601C9.1865 6.47601 8.71172 6.85732 8.41185 7.64453L7 7.12792Z" fill="#D2D6DB"/>
</svg>
